<svg width="146" height="38" viewBox="0 0 146 38" fill="none" xmlns="http://www.w3.org/2000/svg">
<path d="M36.15 31V4.88909H46.5037C48.2686 4.88909 49.7132 5.2457 50.8374 5.95891C51.9737 6.66004 52.8138 7.56062 53.3578 8.66066C53.9139 9.76071 54.1919 10.897 54.1919 12.0696C54.1919 13.5081 53.8474 14.729 53.1584 15.7324C52.4814 16.7357 51.5567 17.4127 50.3841 17.7632V16.8566C52.0281 17.2313 53.2732 18.011 54.1194 19.1957C54.9777 20.3804 55.4068 21.7282 55.4068 23.2393C55.4068 24.7866 55.1106 26.1405 54.5183 27.301C53.926 28.4614 53.0435 29.3681 51.871 30.0208C50.7105 30.6736 49.272 31 47.5554 31H36.15ZM40.5744 26.8839H47.0114C47.773 26.8839 48.456 26.7328 49.0604 26.4306C49.6648 26.1163 50.1363 25.6811 50.4747 25.125C50.8253 24.5569 51.0006 23.886 51.0006 23.1123C51.0006 22.4112 50.8495 21.7826 50.5473 21.2265C50.2451 20.6705 49.8038 20.2292 49.2236 19.9029C48.6434 19.5644 47.9483 19.3952 47.1384 19.3952H40.5744V26.8839ZM40.5744 15.3153H46.4493C47.0779 15.3153 47.64 15.1944 48.1356 14.9527C48.6313 14.7109 49.0241 14.3543 49.3143 13.8828C49.6044 13.4114 49.7494 12.8312 49.7494 12.1421C49.7494 11.2355 49.4593 10.48 48.8791 9.87555C48.2988 9.27113 47.4889 8.96892 46.4493 8.96892H40.5744V15.3153ZM67.6775 31.544C65.7191 31.544 64.0086 31.1028 62.5459 30.2203C61.0832 29.3378 59.9469 28.123 59.137 26.5757C58.3392 25.0162 57.9403 23.2272 57.9403 21.2084C57.9403 19.1534 58.3513 17.3522 59.1733 15.8049C59.9953 14.2576 61.1376 13.0487 62.6003 12.1784C64.063 11.308 65.7554 10.8728 67.6775 10.8728C69.6479 10.8728 71.3644 11.3141 72.8271 12.1965C74.2898 13.079 75.4261 14.2999 76.236 15.8593C77.046 17.4066 77.4509 19.1896 77.4509 21.2084C77.4509 23.2393 77.0399 25.0344 76.2179 26.5938C75.408 28.1411 74.2717 29.356 72.809 30.2384C71.3463 31.1088 69.6358 31.544 67.6775 31.544ZM67.6775 27.446C69.4182 27.446 70.7116 26.8658 71.5578 25.7053C72.404 24.5448 72.8271 23.0458 72.8271 21.2084C72.8271 19.3105 72.398 17.7995 71.5397 16.6753C70.6814 15.539 69.394 14.9708 67.6775 14.9708C66.5049 14.9708 65.5378 15.2367 64.7762 15.7686C64.0268 16.2884 63.4707 17.0198 63.1081 17.9627C62.7454 18.8935 62.5641 19.9754 62.5641 21.2084C62.5641 23.1063 62.9932 24.6234 63.8515 25.7597C64.7219 26.8839 65.9972 27.446 67.6775 27.446ZM81.8087 31V4.34511H86.1786V31H81.8087ZM99.4616 31.544C97.6604 31.544 96.0889 31.0907 94.7471 30.184C93.4053 29.2774 92.3657 28.0444 91.6283 26.485C90.8909 24.9256 90.5222 23.1667 90.5222 21.2084C90.5222 19.2259 90.8909 17.461 91.6283 15.9137C92.3778 14.3543 93.4355 13.1273 94.8015 12.2328C96.1675 11.3262 97.7753 10.8728 99.6248 10.8728C101.486 10.8728 103.046 11.3262 104.303 12.2328C105.572 13.1273 106.533 14.3543 107.186 15.9137C107.839 17.4731 108.165 19.238 108.165 21.2084C108.165 23.1546 107.839 24.9135 107.186 26.485C106.533 28.0444 105.56 29.2774 104.267 30.184C102.973 31.0907 101.372 31.544 99.4616 31.544ZM100.133 27.6273C101.305 27.6273 102.248 27.3614 102.961 26.8295C103.686 26.2855 104.212 25.53 104.539 24.5629C104.877 23.5959 105.046 22.4777 105.046 21.2084C105.046 19.927 104.877 18.8089 104.539 17.8539C104.212 16.8868 103.699 16.1373 102.997 15.6054C102.296 15.0615 101.39 14.7895 100.278 14.7895C99.105 14.7895 98.1379 15.0796 97.3764 15.6598C96.6148 16.228 96.0527 17.0017 95.69 17.9808C95.3274 18.9479 95.146 20.0237 95.146 21.2084C95.146 22.4052 95.3213 23.4931 95.6719 24.4723C96.0345 25.4393 96.5846 26.207 97.322 26.7751C98.0594 27.3433 98.9962 27.6273 100.133 27.6273ZM105.046 31V17.2555H104.502V4.88909H108.909V31H105.046ZM122.642 31.544C120.684 31.544 118.973 31.1028 117.51 30.2203C116.048 29.3378 114.911 28.123 114.101 26.5757C113.304 25.0162 112.905 23.2272 112.905 21.2084C112.905 19.1534 113.316 17.3522 114.138 15.8049C114.96 14.2576 116.102 13.0487 117.565 12.1784C119.027 11.308 120.72 10.8728 122.642 10.8728C124.612 10.8728 126.329 11.3141 127.791 12.1965C129.254 13.079 130.39 14.2999 131.2 15.8593C132.01 17.4066 132.415 19.1896 132.415 21.2084C132.415 23.2393 132.004 25.0344 131.182 26.5938C130.372 28.1411 129.236 29.356 127.773 30.2384C126.311 31.1088 124.6 31.544 122.642 31.544ZM122.642 27.446C124.383 27.446 125.676 26.8658 126.522 25.7053C127.368 24.5448 127.791 23.0458 127.791 21.2084C127.791 19.3105 127.362 17.7995 126.504 16.6753C125.646 15.539 124.358 14.9708 122.642 14.9708C121.469 14.9708 120.502 15.2367 119.741 15.7686C118.991 16.2884 118.435 17.0198 118.072 17.9627C117.71 18.8935 117.528 19.9754 117.528 21.2084C117.528 23.1063 117.958 24.6234 118.816 25.7597C119.686 26.8839 120.962 27.446 122.642 27.446Z" fill="#0A2640"/>
<path d="M0.382324 17.0001H14.6999C19.5833 17.0001 23.542 20.9588 23.542 25.8422C23.542 30.7256 19.5833 34.6843 14.6999 34.6843H0.382324V17.0001Z" fill="#0A2640"/>
<path d="M0.382324 1.52637H9.86186C13.5244 1.52637 16.4934 4.49543 16.4934 8.15794C16.4934 11.8205 13.5244 14.7895 9.86186 14.7895H0.382324V1.52637Z" fill="#0A2640"/>
</svg>
